<?xml version="1.0" standalone="no"?>
<!DOCTYPE svg PUBLIC "-//W3C//DTD SVG 20010904//EN"
 "http://www.w3.org/TR/2001/REC-SVG-20010904/DTD/svg10.dtd">
<svg version="1.0" xmlns="http://www.w3.org/2000/svg"
 width="700.000000pt" height="700.000000pt" viewBox="0 0 700.000000 700.000000"
 preserveAspectRatio="xMidYMid meet">
<metadata>
Created by potrace 1.11, written by Peter Selinger 2001-2013
</metadata>
<g transform="translate(0.000000,700.000000) scale(0.100000,-0.100000)"
fill="#000000" stroke="none">
<path d="M2145 6990 c-544 -59 -965 -530 -965 -1081 l0 -86 -132 -6 c-167 -7
-294 -38 -434 -107 -677 -330 -822 -1232 -281 -1757 203 -197 430 -294 728
-310 l118 -6 3 -631 4 -631 26 -97 c112 -411 429 -711 838 -794 113 -23 125
-24 713 -24 l597 0 0 -72 c1 -225 69 -449 190 -629 59 -88 189 -219 274 -278
126 -87 275 -150 431 -182 89 -19 323 -16 420 5 404 88 729 398 832 794 17 69
26 135 30 229 l6 133 87 0 c290 0 572 120 779 333 269 276 372 686 265 1054
-138 477 -568 793 -1078 793 l-55 0 -3 643 -4 642 -27 94 c-119 411 -442 708
-855 787 -59 11 -198 14 -683 14 l-609 0 0 55 c0 581 -411 1052 -973 1114
-105 12 -137 12 -242 1z m401 -209 c261 -67 456 -231 574 -485 21 -44 45 -106
53 -137 l14 -57 -92 -75 -92 -75 -13 56 c-58 267 -234 475 -460 546 -153 49
-376 53 -516 11 -25 -7 -44 -12 -42 -10 2 2 73 61 158 130 l155 126 90 -4 c50
-3 126 -14 171 -26z m-1653 -1286 c37 -46 64 -86 60 -88 -5 -2 -26 -10 -48
-17 -22 -7 -80 -33 -130 -58 -127 -65 -236 -174 -293 -293 -55 -115 -76 -216
-77 -366 0 -67 -1 -121 -1 -120 -1 1 -47 58 -103 127 -116 144 -115 141 -77
292 50 197 155 352 321 476 83 61 222 130 265 131 8 0 45 -38 83 -84z m681 54
c8 -41 8 -2877 0 -2907 -6 -22 -10 -23 -108 -20 l-101 3 -3 1455 c-1 800 0
1465 3 1478 5 21 10 22 104 22 l99 0 6 -31z m2189 -1381 c4 -425 4 -1100 0
-1500 l-6 -728 -102 0 -102 0 -6 542 c-9 689 -9 1431 0 2006 l6 452 102 0 102
0 6 -772z m1680 -283 c4 -355 4 -915 0 -1245 l-6 -600 -102 0 -102 0 -6 467
c-9 593 -9 1220 0 1671 l6 352 102 0 102 0 6 -645z m502 -412 c335 -118 559
-416 582 -773 l6 -95 -113 -140 c-62 -77 -121 -149 -131 -159 -18 -19 -18 -18
-4 26 21 71 37 232 30 306 -11 118 -36 215 -77 301 -59 123 -168 230 -298 294
-52 26 -134 57 -183 70 l-87 23 75 92 c86 104 71 100 200 55z m-2597 -1725 l3
-108 -610 0 c-335 0 -616 3 -625 6 -13 5 -16 25 -16 110 l0 104 623 -2 622 -3
3 -107z m1970 -592 c83 -67 82 -55 17 -192 -117 -244 -322 -408 -582 -468
-128 -29 -128 -29 -268 85 -69 56 -125 102 -125 103 0 1 60 2 133 2 99 1 152
7 210 23 238 63 399 216 488 464 20 56 25 64 39 54 9 -7 49 -38 88 -71z"/>
</g>
</svg>
